<svg xmlns="http://www.w3.org/2000/svg" width="1200" height="528" viewBox="0 0 1200 528"><rect width="1200" height="100%" fill="#0b1020"/><style>text{font-family:Segoe UI,Arial,sans-serif;fill:#e9eefb}.muted{fill:#99a6bf}.title{font-size:27px;font-weight:700}.small{font-size:13px}.label{font-size:14px}</style><text x="32" y="42" class="title">HLSL kernel tuning — relative speedup</text><text x="32" y="68" class="muted small">AMD Radeon AI PRO R9700 · 32.0.31041.1004 · higher is better</text><text x="32" y="122" class="label">rows=8 · tile=32</text><rect x="430" y="106" width="650" height="22" rx="5" fill="#4be3a4"/><text x="1095" y="122" class="small">1.2493× · 0.0208 ms</text><text x="32" y="164" class="label">rows=4 · tile=32</text><rect x="430" y="148" width="629.93" height="22" rx="5" fill="#7d8aa6"/><text x="1074.93" y="164" class="small">1.2107× · 0.0214 ms</text><text x="32" y="206" class="label">rows=4 · tile=16</text><rect x="430" y="190" width="620.56" height="22" rx="5" fill="#7d8aa6"/><text x="1065.56" y="206" class="small">1.1927× · 0.0217 ms</text><text x="32" y="248" class="label">rows=16 · tile=32</text><rect x="430" y="232" width="579" height="22" rx="5" fill="#7d8aa6"/><text x="1024" y="248" class="small">1.1128× · 0.0233 ms</text><text x="32" y="290" class="label">rows=8 · tile=16</text><rect x="430" y="274" width="520.3" height="22" rx="5" fill="#5aa9ff"/><text x="965.3" y="290" class="small">1× · 0.0259 ms</text><text x="32" y="332" class="label">rows=16 · tile=16</text><rect x="430" y="316" width="385.54" height="22" rx="5" fill="#7d8aa6"/><text x="830.54" y="332" class="small">0.741× · 0.035 ms</text><text x="32" y="374" class="label">rows=8 · tile=8</text><rect x="430" y="358" width="276.97" height="22" rx="5" fill="#7d8aa6"/><text x="721.97" y="374" class="small">0.5323× · 0.0487 ms</text><text x="32" y="416" class="label">rows=4 · tile=8</text><rect x="430" y="400" width="271.04" height="22" rx="5" fill="#7d8aa6"/><text x="716.04" y="416" class="small">0.5209× · 0.0498 ms</text><text x="32" y="458" class="label">rows=16 · tile=8</text><rect x="430" y="442" width="236.93" height="22" rx="5" fill="#7d8aa6"/><text x="681.93" y="458" class="small">0.4554× · 0.0569 ms</text></svg>