<svg xmlns="http://www.w3.org/2000/svg" width="1060" height="624" viewBox="0 0 1060 624">
<rect width="100%" height="100%" fill="#071226"/>
<style>text{font-family:'Segoe UI',sans-serif;fill:#eaf2ff}.muted{fill:#91a4bd}.mono{font-family:Consolas,monospace}</style>
<text x="28" y="38" font-size="24" font-weight="700">HLSL scan stress grid · measured GPU speedup</text>
<text x="28" y="66" font-size="13" class="muted">AMD Radeon AI PRO R9700 · budget 8.3333 ms · cell = baseline median / selected median</text>
<text x="28" y="94" font-size="12" fill="#3fe7a4">green = tuned selected</text>
<text x="205" y="94" font-size="12" fill="#ffbe5c">gold outline = budget crossing</text>
<text x="190" y="122" font-size="12" class="muted">scan repeats per plan →</text>
<text x="216" y="140" font-size="11" text-anchor="middle" class="mono">1</text>
<text x="268" y="140" font-size="11" text-anchor="middle" class="mono">4</text>
<text x="320" y="140" font-size="11" text-anchor="middle" class="mono">8</text>
<text x="372" y="140" font-size="11" text-anchor="middle" class="mono">9</text>
<text x="424" y="140" font-size="11" text-anchor="middle" class="mono">10</text>
<text x="476" y="140" font-size="11" text-anchor="middle" class="mono">11</text>
<text x="528" y="140" font-size="11" text-anchor="middle" class="mono">12</text>
<text x="580" y="140" font-size="11" text-anchor="middle" class="mono">16</text>
<text x="632" y="140" font-size="11" text-anchor="middle" class="mono">17</text>
<text x="684" y="140" font-size="11" text-anchor="middle" class="mono">18</text>
<text x="736" y="140" font-size="11" text-anchor="middle" class="mono">19</text>
<text x="788" y="140" font-size="11" text-anchor="middle" class="mono">20</text>
<text x="840" y="140" font-size="11" text-anchor="middle" class="mono">21</text>
<text x="892" y="140" font-size="11" text-anchor="middle" class="mono">22</text>
<text x="944" y="140" font-size="11" text-anchor="middle" class="mono">23</text>
<text x="996" y="140" font-size="11" text-anchor="middle" class="mono">24</text>
<text x="176" y="176" font-size="12" text-anchor="end" class="mono">2M elements</text>
<rect x="192" y="150" width="48" height="60" rx="6" fill="#15715b" stroke="#263b58" stroke-width="1"/>
<text x="216" y="173" font-size="11" font-weight="700" text-anchor="middle" class="mono">1.068×</text>
<text x="216" y="191" font-size="9" text-anchor="middle" class="mono">0.13ms</text>
<rect x="244" y="150" width="48" height="60" rx="6" fill="#0f9467" stroke="#263b58" stroke-width="1"/>
<text x="268" y="173" font-size="11" font-weight="700" text-anchor="middle" class="mono">1.130×</text>
<text x="268" y="191" font-size="9" text-anchor="middle" class="mono">0.20ms</text>
<rect x="296" y="150" width="48" height="60" rx="6" fill="#0ca56d" stroke="#263b58" stroke-width="1"/>
<text x="320" y="173" font-size="11" font-weight="700" text-anchor="middle" class="mono">1.173×</text>
<text x="320" y="191" font-size="9" text-anchor="middle" class="mono">0.30ms</text>
<rect x="348" y="150" width="48" height="60" rx="6" fill="#101e34"/>
<rect x="400" y="150" width="48" height="60" rx="6" fill="#101e34"/>
<rect x="452" y="150" width="48" height="60" rx="6" fill="#101e34"/>
<rect x="504" y="150" width="48" height="60" rx="6" fill="#0ca56d" stroke="#263b58" stroke-width="1"/>
<text x="528" y="173" font-size="11" font-weight="700" text-anchor="middle" class="mono">1.190×</text>
<text x="528" y="191" font-size="9" text-anchor="middle" class="mono">0.40ms</text>
<rect x="556" y="150" width="48" height="60" rx="6" fill="#0ca56d" stroke="#263b58" stroke-width="1"/>
<text x="580" y="173" font-size="11" font-weight="700" text-anchor="middle" class="mono">1.205×</text>
<text x="580" y="191" font-size="9" text-anchor="middle" class="mono">0.49ms</text>
<rect x="608" y="150" width="48" height="60" rx="6" fill="#101e34"/>
<rect x="660" y="150" width="48" height="60" rx="6" fill="#101e34"/>
<rect x="712" y="150" width="48" height="60" rx="6" fill="#101e34"/>
<rect x="764" y="150" width="48" height="60" rx="6" fill="#101e34"/>
<rect x="816" y="150" width="48" height="60" rx="6" fill="#101e34"/>
<rect x="868" y="150" width="48" height="60" rx="6" fill="#101e34"/>
<rect x="920" y="150" width="48" height="60" rx="6" fill="#101e34"/>
<rect x="972" y="150" width="48" height="60" rx="6" fill="#0ca56d" stroke="#263b58" stroke-width="1"/>
<text x="996" y="173" font-size="11" font-weight="700" text-anchor="middle" class="mono">1.214×</text>
<text x="996" y="191" font-size="9" text-anchor="middle" class="mono">0.69ms</text>
<text x="176" y="240" font-size="12" text-anchor="end" class="mono">4M elements</text>
<rect x="192" y="214" width="48" height="60" rx="6" fill="#156f5b" stroke="#263b58" stroke-width="1"/>
<text x="216" y="237" font-size="11" font-weight="700" text-anchor="middle" class="mono">1.065×</text>
<text x="216" y="255" font-size="9" text-anchor="middle" class="mono">0.16ms</text>
<rect x="244" y="214" width="48" height="60" rx="6" fill="#0ca46d" stroke="#263b58" stroke-width="1"/>
<text x="268" y="237" font-size="11" font-weight="700" text-anchor="middle" class="mono">1.158×</text>
<text x="268" y="255" font-size="9" text-anchor="middle" class="mono">0.28ms</text>
<rect x="296" y="214" width="48" height="60" rx="6" fill="#0ca56d" stroke="#263b58" stroke-width="1"/>
<text x="320" y="237" font-size="11" font-weight="700" text-anchor="middle" class="mono">1.205×</text>
<text x="320" y="255" font-size="9" text-anchor="middle" class="mono">0.44ms</text>
<rect x="348" y="214" width="48" height="60" rx="6" fill="#101e34"/>
<rect x="400" y="214" width="48" height="60" rx="6" fill="#101e34"/>
<rect x="452" y="214" width="48" height="60" rx="6" fill="#101e34"/>
<rect x="504" y="214" width="48" height="60" rx="6" fill="#0ca56d" stroke="#263b58" stroke-width="1"/>
<text x="528" y="237" font-size="11" font-weight="700" text-anchor="middle" class="mono">1.226×</text>
<text x="528" y="255" font-size="9" text-anchor="middle" class="mono">0.61ms</text>
<rect x="556" y="214" width="48" height="60" rx="6" fill="#0ca56d" stroke="#263b58" stroke-width="1"/>
<text x="580" y="237" font-size="11" font-weight="700" text-anchor="middle" class="mono">1.234×</text>
<text x="580" y="255" font-size="9" text-anchor="middle" class="mono">0.77ms</text>
<rect x="608" y="214" width="48" height="60" rx="6" fill="#101e34"/>
<rect x="660" y="214" width="48" height="60" rx="6" fill="#101e34"/>
<rect x="712" y="214" width="48" height="60" rx="6" fill="#101e34"/>
<rect x="764" y="214" width="48" height="60" rx="6" fill="#101e34"/>
<rect x="816" y="214" width="48" height="60" rx="6" fill="#101e34"/>
<rect x="868" y="214" width="48" height="60" rx="6" fill="#101e34"/>
<rect x="920" y="214" width="48" height="60" rx="6" fill="#101e34"/>
<rect x="972" y="214" width="48" height="60" rx="6" fill="#0ca56d" stroke="#263b58" stroke-width="1"/>
<text x="996" y="237" font-size="11" font-weight="700" text-anchor="middle" class="mono">1.247×</text>
<text x="996" y="255" font-size="9" text-anchor="middle" class="mono">1.10ms</text>
<text x="176" y="304" font-size="12" text-anchor="end" class="mono">8M elements</text>
<rect x="192" y="278" width="48" height="60" rx="6" fill="#0ca56d" stroke="#263b58" stroke-width="1"/>
<text x="216" y="301" font-size="11" font-weight="700" text-anchor="middle" class="mono">1.181×</text>
<text x="216" y="319" font-size="9" text-anchor="middle" class="mono">0.22ms</text>
<rect x="244" y="278" width="48" height="60" rx="6" fill="#0ca56d" stroke="#263b58" stroke-width="1"/>
<text x="268" y="301" font-size="11" font-weight="700" text-anchor="middle" class="mono">1.215×</text>
<text x="268" y="319" font-size="9" text-anchor="middle" class="mono">0.42ms</text>
<rect x="296" y="278" width="48" height="60" rx="6" fill="#0ca56d" stroke="#263b58" stroke-width="1"/>
<text x="320" y="301" font-size="11" font-weight="700" text-anchor="middle" class="mono">1.244×</text>
<text x="320" y="319" font-size="9" text-anchor="middle" class="mono">0.72ms</text>
<rect x="348" y="278" width="48" height="60" rx="6" fill="#101e34"/>
<rect x="400" y="278" width="48" height="60" rx="6" fill="#101e34"/>
<rect x="452" y="278" width="48" height="60" rx="6" fill="#101e34"/>
<rect x="504" y="278" width="48" height="60" rx="6" fill="#0ca56d" stroke="#263b58" stroke-width="1"/>
<text x="528" y="301" font-size="11" font-weight="700" text-anchor="middle" class="mono">1.255×</text>
<text x="528" y="319" font-size="9" text-anchor="middle" class="mono">1.02ms</text>
<rect x="556" y="278" width="48" height="60" rx="6" fill="#0ca56d" stroke="#263b58" stroke-width="1"/>
<text x="580" y="301" font-size="11" font-weight="700" text-anchor="middle" class="mono">1.266×</text>
<text x="580" y="319" font-size="9" text-anchor="middle" class="mono">1.31ms</text>
<rect x="608" y="278" width="48" height="60" rx="6" fill="#101e34"/>
<rect x="660" y="278" width="48" height="60" rx="6" fill="#101e34"/>
<rect x="712" y="278" width="48" height="60" rx="6" fill="#101e34"/>
<rect x="764" y="278" width="48" height="60" rx="6" fill="#101e34"/>
<rect x="816" y="278" width="48" height="60" rx="6" fill="#101e34"/>
<rect x="868" y="278" width="48" height="60" rx="6" fill="#101e34"/>
<rect x="920" y="278" width="48" height="60" rx="6" fill="#101e34"/>
<rect x="972" y="278" width="48" height="60" rx="6" fill="#0ca56d" stroke="#263b58" stroke-width="1"/>
<text x="996" y="301" font-size="11" font-weight="700" text-anchor="middle" class="mono">1.270×</text>
<text x="996" y="319" font-size="9" text-anchor="middle" class="mono">1.92ms</text>
<text x="176" y="368" font-size="12" text-anchor="end" class="mono">12M elements</text>
<rect x="192" y="342" width="48" height="60" rx="6" fill="#0ca56d" stroke="#263b58" stroke-width="1"/>
<text x="216" y="365" font-size="11" font-weight="700" text-anchor="middle" class="mono">1.230×</text>
<text x="216" y="383" font-size="9" text-anchor="middle" class="mono">0.28ms</text>
<rect x="244" y="342" width="48" height="60" rx="6" fill="#0ca56d" stroke="#263b58" stroke-width="1"/>
<text x="268" y="365" font-size="11" font-weight="700" text-anchor="middle" class="mono">1.346×</text>
<text x="268" y="383" font-size="9" text-anchor="middle" class="mono">0.81ms</text>
<rect x="296" y="342" width="48" height="60" rx="6" fill="#0ca56d" stroke="#263b58" stroke-width="1"/>
<text x="320" y="365" font-size="11" font-weight="700" text-anchor="middle" class="mono">1.380×</text>
<text x="320" y="383" font-size="9" text-anchor="middle" class="mono">1.53ms</text>
<rect x="348" y="342" width="48" height="60" rx="6" fill="#101e34"/>
<rect x="400" y="342" width="48" height="60" rx="6" fill="#101e34"/>
<rect x="452" y="342" width="48" height="60" rx="6" fill="#101e34"/>
<rect x="504" y="342" width="48" height="60" rx="6" fill="#0ca56d" stroke="#263b58" stroke-width="1"/>
<text x="528" y="365" font-size="11" font-weight="700" text-anchor="middle" class="mono">1.390×</text>
<text x="528" y="383" font-size="9" text-anchor="middle" class="mono">2.24ms</text>
<rect x="556" y="342" width="48" height="60" rx="6" fill="#0ca56d" stroke="#263b58" stroke-width="1"/>
<text x="580" y="365" font-size="11" font-weight="700" text-anchor="middle" class="mono">1.404×</text>
<text x="580" y="383" font-size="9" text-anchor="middle" class="mono">2.93ms</text>
<rect x="608" y="342" width="48" height="60" rx="6" fill="#101e34"/>
<rect x="660" y="342" width="48" height="60" rx="6" fill="#101e34"/>
<rect x="712" y="342" width="48" height="60" rx="6" fill="#101e34"/>
<rect x="764" y="342" width="48" height="60" rx="6" fill="#101e34"/>
<rect x="816" y="342" width="48" height="60" rx="6" fill="#101e34"/>
<rect x="868" y="342" width="48" height="60" rx="6" fill="#101e34"/>
<rect x="920" y="342" width="48" height="60" rx="6" fill="#101e34"/>
<rect x="972" y="342" width="48" height="60" rx="6" fill="#0ca56d" stroke="#263b58" stroke-width="1"/>
<text x="996" y="365" font-size="11" font-weight="700" text-anchor="middle" class="mono">1.399×</text>
<text x="996" y="383" font-size="9" text-anchor="middle" class="mono">4.37ms</text>
<text x="176" y="432" font-size="12" text-anchor="end" class="mono">16M elements</text>
<rect x="192" y="406" width="48" height="60" rx="6" fill="#0ca56d" stroke="#263b58" stroke-width="1"/>
<text x="216" y="429" font-size="11" font-weight="700" text-anchor="middle" class="mono">1.669×</text>
<text x="216" y="447" font-size="9" text-anchor="middle" class="mono">0.34ms</text>
<rect x="244" y="406" width="48" height="60" rx="6" fill="#0ca56d" stroke="#263b58" stroke-width="1"/>
<text x="268" y="429" font-size="11" font-weight="700" text-anchor="middle" class="mono">1.850×</text>
<text x="268" y="447" font-size="9" text-anchor="middle" class="mono">1.04ms</text>
<rect x="296" y="406" width="48" height="60" rx="6" fill="#0ca56d" stroke="#263b58" stroke-width="1"/>
<text x="320" y="429" font-size="11" font-weight="700" text-anchor="middle" class="mono">1.904×</text>
<text x="320" y="447" font-size="9" text-anchor="middle" class="mono">1.96ms</text>
<rect x="348" y="406" width="48" height="60" rx="6" fill="#101e34"/>
<rect x="400" y="406" width="48" height="60" rx="6" fill="#101e34"/>
<rect x="452" y="406" width="48" height="60" rx="6" fill="#101e34"/>
<rect x="504" y="406" width="48" height="60" rx="6" fill="#0ca56d" stroke="#263b58" stroke-width="1"/>
<text x="528" y="429" font-size="11" font-weight="700" text-anchor="middle" class="mono">1.913×</text>
<text x="528" y="447" font-size="9" text-anchor="middle" class="mono">2.90ms</text>
<rect x="556" y="406" width="48" height="60" rx="6" fill="#0ca56d" stroke="#263b58" stroke-width="1"/>
<text x="580" y="429" font-size="11" font-weight="700" text-anchor="middle" class="mono">1.932×</text>
<text x="580" y="447" font-size="9" text-anchor="middle" class="mono">3.81ms</text>
<rect x="608" y="406" width="48" height="60" rx="6" fill="#0ca56d" stroke="#263b58" stroke-width="1"/>
<text x="632" y="429" font-size="11" font-weight="700" text-anchor="middle" class="mono">1.939×</text>
<text x="632" y="447" font-size="9" text-anchor="middle" class="mono">4.04ms</text>
<rect x="660" y="406" width="48" height="60" rx="6" fill="#0ca56d" stroke="#263b58" stroke-width="1"/>
<text x="684" y="429" font-size="11" font-weight="700" text-anchor="middle" class="mono">1.933×</text>
<text x="684" y="447" font-size="9" text-anchor="middle" class="mono">4.28ms</text>
<rect x="712" y="406" width="48" height="60" rx="6" fill="#0ca56d" stroke="#263b58" stroke-width="1"/>
<text x="736" y="429" font-size="11" font-weight="700" text-anchor="middle" class="mono">1.935×</text>
<text x="736" y="447" font-size="9" text-anchor="middle" class="mono">4.51ms</text>
<rect x="764" y="406" width="48" height="60" rx="6" fill="#0ca56d" stroke="#263b58" stroke-width="1"/>
<text x="788" y="429" font-size="11" font-weight="700" text-anchor="middle" class="mono">1.934×</text>
<text x="788" y="447" font-size="9" text-anchor="middle" class="mono">4.74ms</text>
<rect x="816" y="406" width="48" height="60" rx="6" fill="#0ca56d" stroke="#263b58" stroke-width="1"/>
<text x="840" y="429" font-size="11" font-weight="700" text-anchor="middle" class="mono">1.937×</text>
<text x="840" y="447" font-size="9" text-anchor="middle" class="mono">4.97ms</text>
<rect x="868" y="406" width="48" height="60" rx="6" fill="#0ca56d" stroke="#263b58" stroke-width="1"/>
<text x="892" y="429" font-size="11" font-weight="700" text-anchor="middle" class="mono">1.930×</text>
<text x="892" y="447" font-size="9" text-anchor="middle" class="mono">5.20ms</text>
<rect x="920" y="406" width="48" height="60" rx="6" fill="#0ca56d" stroke="#263b58" stroke-width="1"/>
<text x="944" y="429" font-size="11" font-weight="700" text-anchor="middle" class="mono">1.946×</text>
<text x="944" y="447" font-size="9" text-anchor="middle" class="mono">5.43ms</text>
<rect x="972" y="406" width="48" height="60" rx="6" fill="#0ca56d" stroke="#263b58" stroke-width="1"/>
<text x="996" y="429" font-size="11" font-weight="700" text-anchor="middle" class="mono">1.938×</text>
<text x="996" y="447" font-size="9" text-anchor="middle" class="mono">5.67ms</text>
<text x="176" y="496" font-size="12" text-anchor="end" class="mono">24M elements</text>
<rect x="192" y="470" width="48" height="60" rx="6" fill="#0ca56d" stroke="#263b58" stroke-width="1"/>
<text x="216" y="493" font-size="11" font-weight="700" text-anchor="middle" class="mono">1.800×</text>
<text x="216" y="511" font-size="9" text-anchor="middle" class="mono">0.45ms</text>
<rect x="244" y="470" width="48" height="60" rx="6" fill="#0ca56d" stroke="#263b58" stroke-width="1"/>
<text x="268" y="493" font-size="11" font-weight="700" text-anchor="middle" class="mono">1.972×</text>
<text x="268" y="511" font-size="9" text-anchor="middle" class="mono">1.48ms</text>
<rect x="296" y="470" width="48" height="60" rx="6" fill="#0ca56d" stroke="#263b58" stroke-width="1"/>
<text x="320" y="493" font-size="11" font-weight="700" text-anchor="middle" class="mono">2.013×</text>
<text x="320" y="511" font-size="9" text-anchor="middle" class="mono">2.85ms</text>
<rect x="348" y="470" width="48" height="60" rx="6" fill="#0ca56d" stroke="#263b58" stroke-width="1"/>
<text x="372" y="493" font-size="11" font-weight="700" text-anchor="middle" class="mono">2.009×</text>
<text x="372" y="511" font-size="9" text-anchor="middle" class="mono">3.20ms</text>
<rect x="400" y="470" width="48" height="60" rx="6" fill="#0ca56d" stroke="#263b58" stroke-width="1"/>
<text x="424" y="493" font-size="11" font-weight="700" text-anchor="middle" class="mono">2.006×</text>
<text x="424" y="511" font-size="9" text-anchor="middle" class="mono">3.55ms</text>
<rect x="452" y="470" width="48" height="60" rx="6" fill="#0ca56d" stroke="#263b58" stroke-width="1"/>
<text x="476" y="493" font-size="11" font-weight="700" text-anchor="middle" class="mono">2.008×</text>
<text x="476" y="511" font-size="9" text-anchor="middle" class="mono">3.91ms</text>
<rect x="504" y="470" width="48" height="60" rx="6" fill="#0ca56d" stroke="#263b58" stroke-width="1"/>
<text x="528" y="493" font-size="11" font-weight="700" text-anchor="middle" class="mono">2.027×</text>
<text x="528" y="511" font-size="9" text-anchor="middle" class="mono">4.23ms</text>
<rect x="556" y="470" width="48" height="60" rx="6" fill="#0ca56d" stroke="#ffbe5c" stroke-width="3"/>
<text x="580" y="493" font-size="11" font-weight="700" text-anchor="middle" class="mono">2.029×</text>
<text x="580" y="511" font-size="9" text-anchor="middle" class="mono">5.62ms</text>
<rect x="608" y="470" width="48" height="60" rx="6" fill="#101e34"/>
<rect x="660" y="470" width="48" height="60" rx="6" fill="#101e34"/>
<rect x="712" y="470" width="48" height="60" rx="6" fill="#101e34"/>
<rect x="764" y="470" width="48" height="60" rx="6" fill="#101e34"/>
<rect x="816" y="470" width="48" height="60" rx="6" fill="#101e34"/>
<rect x="868" y="470" width="48" height="60" rx="6" fill="#101e34"/>
<rect x="920" y="470" width="48" height="60" rx="6" fill="#101e34"/>
<rect x="972" y="470" width="48" height="60" rx="6" fill="#0ca56d" stroke="#263b58" stroke-width="1"/>
<text x="996" y="493" font-size="11" font-weight="700" text-anchor="middle" class="mono">2.027×</text>
<text x="996" y="511" font-size="9" text-anchor="middle" class="mono">8.38ms</text>
<text x="28" y="590" font-size="12" class="muted">All cells: same deterministic image workload; correctness gated by SHA-256; upload/readback excluded from GPU timing.</text>
</svg>
